<svg width="256" height="256" viewBox="0 0 256 256" fill="none" xmlns="http://www.w3.org/2000/svg">
<g filter="url(#filter0_d_803_85)">
<rect x="33" y="58" width="199" height="126" rx="10" fill="#D75626"/>
<path d="M122.5 184L57 232L73 184H122.5Z" fill="#D75626"/>
</g>
<path d="M75.1188 156.811C70.5897 156.811 67.1083 155.527 64.6748 152.958C62.2412 150.389 61.0244 146.874 61.0244 142.413V113.413H55.7517C55.2109 113.413 54.6364 113.176 54.028 112.703C53.4872 112.297 53.2168 111.655 53.2168 110.776V105.706L61.6328 104.388L64.2692 90.1925C64.3368 89.5841 64.641 89.0772 65.1818 88.6716C65.7226 88.266 66.3648 88.0632 67.1083 88.0632H73.5978V104.49H87.2866V113.413H73.5978V141.601C73.5978 143.156 74.0034 144.407 74.8146 145.353C75.6258 146.232 76.7074 146.671 78.0593 146.671C79.0057 146.671 79.6479 146.604 79.9859 146.469L81.3041 145.86L82.4195 145.252C82.6223 145.117 82.8927 145.049 83.2307 145.049C83.7715 145.049 84.1094 145.117 84.2446 145.252L84.9544 146.063L88.7062 152.147C86.9486 153.566 84.853 154.716 82.4195 155.594C80.1211 156.406 77.6876 156.811 75.1188 156.811ZM146.1 105.808C144.883 105.808 144.106 105.199 143.768 103.983C143.565 103.104 143.261 100.4 142.855 95.8708C137.515 94.3161 132.851 93.5387 128.862 93.5387C125.28 93.5387 122.102 94.1133 119.331 95.2624C116.424 96.4792 113.957 98.203 111.929 100.434C109.833 102.732 108.211 105.436 107.062 108.546C105.845 111.79 105.236 115.407 105.236 119.395C105.236 123.451 105.845 127.101 107.062 130.346C108.346 133.726 109.901 136.43 111.726 138.458C113.686 140.621 116.052 142.311 118.824 143.528C121.393 144.677 124.299 145.252 127.544 145.252C129.437 145.252 131.127 145.15 132.614 144.948C134.169 144.745 135.555 144.441 136.771 144.035C137.92 143.629 139.103 143.055 140.32 142.311C141.334 141.703 142.45 140.824 143.666 139.675C143.869 139.472 144.241 139.235 144.782 138.965C145.052 138.83 145.458 138.762 145.999 138.762C146.81 138.762 147.452 139.033 147.925 139.573L153.299 145.455C150.325 149.173 146.675 151.978 142.348 153.871C137.887 155.831 132.648 156.811 126.631 156.811C121.426 156.811 116.559 155.865 112.03 153.972C107.569 152.079 103.851 149.511 100.876 146.266C97.6992 142.818 95.3332 138.864 93.7785 134.402C92.1561 129.805 91.3449 124.803 91.3449 119.395C91.3449 113.785 92.2575 108.715 94.0826 104.185C95.9078 99.6564 98.4766 95.7356 101.789 92.4233C105.236 88.9758 109.191 86.3732 113.653 84.6156C118.249 82.7905 123.353 81.8779 128.964 81.8779C135.183 81.8779 142.855 83.6355 151.981 87.1506V105.808H146.1ZM212.994 101.955H207.113C205.896 101.955 205.119 101.313 204.781 100.028C204.443 97.3918 204.206 95.2286 204.071 93.5387H177.91V115.238H203.564V126.088H177.91V145.962L180.952 146.469C181.29 146.536 181.561 146.604 181.764 146.671C182.034 146.739 182.271 146.773 182.473 146.773L183.082 146.874C184.772 147.28 185.617 148.328 185.617 150.018V156H156.515V150.018C156.515 148.328 157.36 147.28 159.05 146.874L159.659 146.773C159.862 146.773 160.064 146.739 160.267 146.671C160.538 146.604 160.842 146.536 161.18 146.469L164.222 145.962V92.7275L161.18 92.2205C160.842 92.1529 160.538 92.0853 160.267 92.0177C160.064 91.9501 159.862 91.9163 159.659 91.9163L159.05 91.8149C157.36 91.4093 156.515 90.3615 156.515 88.6716V82.6891H212.994V101.955Z" fill="white"/>
<defs>
<filter id="filter0_d_803_85" x="27" y="52" width="205" height="180" filterUnits="userSpaceOnUse" color-interpolation-filters="sRGB">
<feFlood flood-opacity="0" result="BackgroundImageFix"/>
<feColorMatrix in="SourceAlpha" type="matrix" values="0 0 0 0 0 0 0 0 0 0 0 0 0 0 0 0 0 0 127 0" result="hardAlpha"/>
<feOffset dx="-6" dy="-6"/>
<feComposite in2="hardAlpha" operator="out"/>
<feColorMatrix type="matrix" values="0 0 0 0 0.152941 0 0 0 0 0.309804 0 0 0 0 0.592157 0 0 0 1 0"/>
<feBlend mode="normal" in2="BackgroundImageFix" result="effect1_dropShadow_803_85"/>
<feBlend mode="normal" in="SourceGraphic" in2="effect1_dropShadow_803_85" result="shape"/>
</filter>
</defs>
</svg>
