<svg width="128" height="128" viewBox="0 0 128 128" fill="none" xmlns="http://www.w3.org/2000/svg">
    <rect x="13" y="22.5" width="99.5" height="63" rx="5" fill="#274F97"/>
    <path d="M57.75 85.5L25 109.5L33 85.5H57.75Z" fill="#274F97"/>
    <rect x="16" y="25.5" width="99.5" height="63" rx="5" fill="#D75626"/>
    <path d="M61.5 88L28 112.5L36 88H61.5Z" fill="#D75626"/>
    <path d="M37.5594 78.4056C35.2948 78.4056 33.5542 77.7634 32.3374 76.479C31.1206 75.1946 30.5122 73.4371 30.5122 71.2063V56.7064H27.8759C27.6055 56.7064 27.3182 56.5881 27.014 56.3515C26.7436 56.1487 26.6084 55.8276 26.6084 55.3882V52.8532L30.8164 52.1941L32.1346 45.0963C32.1684 44.7921 32.3205 44.5386 32.5909 44.3358C32.8613 44.133 33.1824 44.0316 33.5542 44.0316H36.7989V52.2448H43.6433V56.7064H36.7989V70.8007C36.7989 71.5781 37.0017 72.2034 37.4073 72.6766C37.8129 73.116 38.3537 73.3357 39.0297 73.3357C39.5029 73.3357 39.824 73.3019 39.993 73.2343L40.652 72.9301L41.2097 72.6259C41.3111 72.5583 41.4463 72.5245 41.6153 72.5245C41.8857 72.5245 42.0547 72.5583 42.1223 72.6259L42.4772 73.0315L44.3531 76.0734C43.4743 76.7832 42.4265 77.3578 41.2097 77.7972C40.0606 78.2028 38.8438 78.4056 37.5594 78.4056ZM73.05 52.9039C72.4416 52.9039 72.0529 52.5997 71.8839 51.9913C71.7825 51.552 71.6304 50.2 71.4276 47.9354C68.7574 47.158 66.4253 46.7693 64.4311 46.7693C62.6398 46.7693 61.0512 47.0566 59.6654 47.6312C58.212 48.2396 56.9784 49.1015 55.9644 50.2169C54.9166 51.3661 54.1054 52.718 53.5308 54.2728C52.9224 55.8952 52.6182 57.7034 52.6182 59.6976C52.6182 61.7256 52.9224 63.5507 53.5308 65.1731C54.173 66.8631 54.9504 68.2151 55.863 69.2291C56.8432 70.3106 58.0261 71.1556 59.4119 71.764C60.6963 72.3386 62.1497 72.6259 63.772 72.6259C64.7184 72.6259 65.5634 72.5752 66.307 72.4738C67.0844 72.3724 67.7773 72.2203 68.3857 72.0175C68.9602 71.8147 69.5517 71.5274 70.1601 71.1556C70.6671 70.8514 71.2248 70.412 71.8332 69.8374C71.9346 69.736 72.1205 69.6177 72.3909 69.4825C72.5261 69.4149 72.7289 69.3811 72.9993 69.3811C73.4049 69.3811 73.726 69.5163 73.9626 69.7867L76.6496 72.7273C75.1624 74.5863 73.3373 75.9889 71.1741 76.9353C68.9433 77.9155 66.3239 78.4056 63.3157 78.4056C60.7132 78.4056 58.2796 77.9324 56.0151 76.986C53.7843 76.0396 51.9253 74.7553 50.4382 73.1329C48.8496 71.4091 47.6666 69.4318 46.8892 67.2011C46.078 64.9027 45.6724 62.4016 45.6724 59.6976C45.6724 56.8923 46.1287 54.3573 47.0413 52.0927C47.9539 49.8282 49.2383 47.8678 50.8945 46.2116C52.6182 44.4879 54.5955 43.1866 56.8263 42.3078C59.1246 41.3952 61.6765 40.9389 64.4818 40.9389C67.5914 40.9389 71.4276 41.8177 75.9905 43.5753V52.9039H73.05ZM106.497 50.9774H103.557C102.948 50.9774 102.56 50.6563 102.391 50.0141C102.222 48.6959 102.103 47.6143 102.036 46.7693H88.9552V57.619H101.782V63.0438H88.9552V72.9808L90.4762 73.2343C90.6452 73.2681 90.7804 73.3019 90.8818 73.3357C91.017 73.3695 91.1353 73.3864 91.2367 73.3864L91.5409 73.4371C92.3859 73.6399 92.8084 74.1638 92.8084 75.0088V78H78.2577V75.0088C78.2577 74.1638 78.6802 73.6399 79.5252 73.4371L79.8294 73.3864C79.9308 73.3864 80.0322 73.3695 80.1336 73.3357C80.2688 73.3019 80.4209 73.2681 80.5899 73.2343L82.1109 72.9808V46.3637L80.5899 46.1103C80.4209 46.0764 80.2688 46.0426 80.1336 46.0089C80.0322 45.9751 79.9308 45.9582 79.8294 45.9582L79.5252 45.9075C78.6802 45.7047 78.2577 45.1808 78.2577 44.3358V41.3445H106.497V50.9774Z" fill="white"/>
</svg>    