<svg id="Reply--Streamline-Carbon" xmlns="http://www.w3.org/2000/svg" viewBox="0 0 16 16" height="16" width="16">
  <desc>
    Reply Streamline Icon: https://streamlinehq.com
  </desc>
  <defs></defs>
  <title>reply</title>
  <path d="M14.44 15a0.5 0.5 0 0 1 -0.44 -0.25A7.595 7.595 0 0 0 7.5 11v3a0.5 0.5 0 0 1 -0.31 0.46 0.5 0.5 0 0 1 -0.545 -0.105l-6 -6a0.5 0.5 0 0 1 0 -0.71l6 -6a0.5 0.5 0 0 1 0.545 -0.105A0.5 0.5 0 0 1 7.5 2v3.055a8.595 8.595 0 0 1 7.5 8.5 8.17 8.17 0 0 1 -0.065 1 0.5 0.5 0 0 1 -0.395 0.43ZM7.25 10A8.81 8.81 0 0 1 14 13a7.655 7.655 0 0 0 -7.045 -7 0.5 0.5 0 0 1 -0.455 -0.5V3.205L1.705 8 6.5 12.795V10.5a0.5 0.5 0 0 1 0.5 -0.5h0.27Z" fill="#000000" stroke-width="0.5"></path>
  <path id="_Transparent_Rectangle_" d="M0 0h16v16H0Z" fill="none" stroke-width="0.5"></path>
</svg>